<svg xmlns="http://www.w3.org/2000/svg" width="16" height="16" viewBox="0 0 16 16">
  <path id="rocket" d="M8.114,16A.7.7,0,0,1,7.5,14.98a2.636,2.636,0,0,0-.275-3.116l-.009-.011-.007-.008L4.141,8.782a2.324,2.324,0,0,0-1.663-.65,3.152,3.152,0,0,0-1.458.375.7.7,0,0,1-.324.08A.7.7,0,0,1,.067,7.6,6.082,6.082,0,0,1,2.509,4.873a4.192,4.192,0,0,1,2.075-.564,3.923,3.923,0,0,1,1.223.2A11.2,11.2,0,0,1,9.314,1.317,10.143,10.143,0,0,1,14.4,0c.3,0,.612.012.92.036a.692.692,0,0,1,.639.634,9.988,9.988,0,0,1-2.372,7.612,11.832,11.832,0,0,1-2.088,1.9,4.06,4.06,0,0,1-.363,3.315,6.084,6.084,0,0,1-2.725,2.44A.681.681,0,0,1,8.114,16ZM11.58,3.3a1.128,1.128,0,1,0,.8.33A1.13,1.13,0,0,0,11.58,3.3ZM2.472,14.261H2.45a.7.7,0,0,1-.692-.7,4.29,4.29,0,0,1,.83-2.708,1.939,1.939,0,0,1,1.347-.591,1.761,1.761,0,0,1,1.251.557,1.814,1.814,0,0,1,.561,1.28,1.854,1.854,0,0,1-.6,1.327A4.238,4.238,0,0,1,2.472,14.261Z" transform="translate(0 0)" fill="#fff"/>
</svg>
